<?xml version="1.0" encoding="UTF-8" standalone="no"?>
<!-- Created with Inkscape (http://www.inkscape.org/) -->

<svg
   width="476.22037mm"
   height="209.33054mm"
   viewBox="0 0 476.22037 209.33054"
   version="1.1"
   id="svg5"
   sodipodi:docname="dark1.svg"
   inkscape:export-filename="/Users/dedumoulin/Desktop/dessin.png"
   inkscape:export-xdpi="96"
   inkscape:export-ydpi="96"
   inkscape:version="1.1 (c4e8f9e, 2021-05-24)"
   xmlns:inkscape="http://www.inkscape.org/namespaces/inkscape"
   xmlns:sodipodi="http://sodipodi.sourceforge.net/DTD/sodipodi-0.dtd"
   xmlns="http://www.w3.org/2000/svg"
   xmlns:svg="http://www.w3.org/2000/svg">
  <sodipodi:namedview
     id="namedview7"
     pagecolor="#505050"
     bordercolor="#ffffff"
     borderopacity="1"
     inkscape:pageshadow="0"
     inkscape:pageopacity="0"
     inkscape:pagecheckerboard="1"
     inkscape:document-units="mm"
     showgrid="false"
     inkscape:zoom="0.28463673"
     inkscape:cx="904.6619"
     inkscape:cy="105.3975"
     inkscape:window-width="1394"
     inkscape:window-height="826"
     inkscape:window-x="17"
     inkscape:window-y="25"
     inkscape:window-maximized="0"
     inkscape:current-layer="layer1"
     height="296mm"
     width="600mm"
     fit-margin-top="0"
     fit-margin-left="0"
     fit-margin-right="0"
     fit-margin-bottom="0" />
  <defs
     id="defs2">
    <rect
       x="610.01062"
       y="-142.19843"
       width="1063.3969"
       height="405.98682"
       id="rect4883" />
  </defs>
  <g
     inkscape:label="Calque 1"
     inkscape:groupmode="layer"
     id="layer1"
     transform="translate(-12.11685,1.1717604)">
    <path
       style="fill:none;fill-opacity:1;stroke-width:0.110953;image-rendering:auto"
       d="m 12.337518,207.97872 c -0.114539,-0.13682 -0.213751,-0.30452 -0.220473,-0.37266 -0.01343,-0.13617 0.670961,-0.73391 0.863493,-0.75414 0.06629,-0.007 0.367803,-0.22706 0.670026,-0.48906 0.302222,-0.26202 0.603489,-0.48206 0.669483,-0.48899 0.06599,-0.007 0.456153,-0.29016 0.867021,-0.62936 0.410868,-0.3392 0.796549,-0.62194 0.857072,-0.62831 0.06047,-0.006 0.43739,-0.28817 0.837488,-0.62625 0.400099,-0.33808 0.779463,-0.62015 0.84303,-0.62683 0.06355,-0.007 0.451744,-0.28969 0.862611,-0.62892 0.41087,-0.33918 0.79184,-0.62144 0.846603,-0.6272 0.05476,-0.006 0.510014,-0.34962 1.011666,-0.76415 0.50165,-0.41454 0.956259,-0.75835 1.01024,-0.76401 0.05398,-0.006 0.548898,-0.38064 1.099814,-0.83323 0.550913,-0.45261 1.048378,-0.82784 1.105478,-0.83383 0.05709,-0.006 0.623149,-0.44227 1.257891,-0.96946 0.634743,-0.52719 1.204652,-0.96385 1.266472,-0.97037 0.06187,-0.006 0.668203,-0.47404 1.34753,-1.03897 0.679326,-0.56497 1.425028,-1.14823 1.657115,-1.29617 0.232081,-0.148 1.361933,-1.04698 2.510766,-1.99786 1.148832,-0.9509 2.135148,-1.73378 2.191814,-1.73973 0.140309,-0.0153 9.570919,-7.80043 9.801421,-8.09184 0.101038,-0.12773 1.28223,-1.14176 2.624863,-2.25334 1.342635,-1.11157 2.480757,-2.08977 2.529165,-2.17377 0.0484,-0.084 0.756661,-0.69675 1.573901,-1.36168 0.817241,-0.6649 1.589458,-1.33742 1.716035,-1.49447 0.12658,-0.15704 0.780602,-0.73253 1.453387,-1.27887 0.672783,-0.54633 1.280291,-1.07471 1.350016,-1.17419 0.06974,-0.0994 0.61505,-0.588 1.211834,-1.08556 0.59678,-0.49757 1.167938,-1.00719 1.269236,-1.13251 0.101294,-0.12536 0.550931,-0.52547 0.999179,-0.8893 0.448251,-0.3638 0.96228,-0.81958 1.142288,-1.01282 0.18001,-0.19324 0.757938,-0.70936 1.284287,-1.14692 0.526352,-0.43755 0.975847,-0.83904 0.998878,-0.89218 0.02304,-0.0531 0.40666,-0.41298 0.852512,-0.7996 0.445855,-0.38662 0.944481,-0.83573 1.108063,-0.998 0.424298,-0.42091 1.380114,-1.28661 2.122217,-1.9221 0.350252,-0.29996 0.708986,-0.64891 0.797185,-0.77546 0.0882,-0.12653 0.318756,-0.34737 0.512347,-0.49071 0.193585,-0.1434 0.454225,-0.38726 0.579187,-0.54207 0.124957,-0.1548 0.434134,-0.44331 0.68706,-0.64113 0.252923,-0.19781 0.455537,-0.40083 0.450248,-0.45113 -0.0053,-0.0503 0.249826,-0.2963 0.566919,-0.54662 0.317093,-0.25031 0.572346,-0.49497 0.567225,-0.5437 -0.0052,-0.0487 0.158213,-0.21204 0.362967,-0.36293 0.204751,-0.15092 0.47164,-0.39625 0.593074,-0.54527 0.121433,-0.1491 0.397781,-0.43666 0.614097,-0.63913 0.216317,-0.20249 0.637375,-0.6091 0.935685,-0.90359 0.298314,-0.29448 0.700429,-0.68662 0.893591,-0.87136 0.927765,-0.88739 1.510777,-1.47169 2.210259,-2.21511 0.259417,-0.27571 0.791675,-0.80187 1.131202,-1.11828 0.622762,-0.58033 2.12879,-2.09819 2.305315,-2.3234 0.07571,-0.0965 0.321362,-0.3211 0.545918,-0.4989 0.224558,-0.17779 0.403836,-0.36562 0.398396,-0.41736 -0.0054,-0.0517 0.153034,-0.21474 0.352168,-0.36215 0.19914,-0.14736 0.465571,-0.39706 0.592079,-0.55476 0.126511,-0.15769 0.392946,-0.40733 0.592078,-0.55476 0.19914,-0.14735 0.35761,-0.31036 0.352167,-0.36213 -0.0054,-0.0517 0.173793,-0.24002 0.398292,-0.4184 0.224497,-0.17834 0.523166,-0.45869 0.663701,-0.62301 0.140537,-0.1643 0.471564,-0.4677 0.735615,-0.67422 0.264053,-0.20651 0.475921,-0.41518 0.470823,-0.46369 -0.0051,-0.0485 0.239095,-0.28698 0.542653,-0.52996 0.30356,-0.24294 0.634483,-0.54734 0.735387,-0.67638 0.195744,-0.25039 4.429702,-3.77264 4.715549,-3.92291 0.09345,-0.0491 0.519546,-0.32693 0.946893,-0.61736 2.328593,-1.58251 4.234479,-1.70777 5.12887,-0.33703 0.461742,0.70767 0.570247,1.63731 0.376789,3.22822 -0.139649,1.1484 -0.187,1.38213 -0.445643,2.19976 -0.07533,0.23815 -0.156556,0.55955 -0.180483,0.7142 -0.02392,0.15464 -0.207103,0.68521 -0.40706,1.17902 -0.199959,0.49383 -0.394665,1.01311 -0.432681,1.15395 -0.216506,0.80209 -2.641918,5.63497 -3.194964,6.36633 -0.02702,0.0358 -0.138699,0.23585 -0.248173,0.4447 -0.512558,0.97788 -2.713605,4.21527 -4.247464,6.24735 -1.530552,2.02769 -1.789978,2.36206 -2.071212,2.66962 -0.133111,0.14549 -0.31003,0.35596 -0.393163,0.46759 -0.08316,0.11159 -0.48602,0.58126 -0.895291,1.04366 -0.409274,0.46239 -0.806349,0.91705 -0.88239,1.01041 -0.07604,0.0933 -0.282475,0.34733 -0.458742,0.56443 -0.176268,0.21713 -0.39939,0.43333 -0.495828,0.48045 -0.09643,0.0472 -0.170233,0.13429 -0.164,0.19361 0.0062,0.0594 -0.162504,0.236 -0.374984,0.39259 -0.212483,0.15653 -0.381724,0.32845 -0.376101,0.38197 0.0056,0.0535 -0.141337,0.21464 -0.326579,0.35809 -0.185235,0.14349 -0.332589,0.30089 -0.327446,0.34984 0.0052,0.0489 -0.164492,0.2171 -0.376972,0.37368 -0.212481,0.15654 -0.381742,0.32828 -0.376141,0.38158 0.0056,0.0532 -0.08817,0.16351 -0.208395,0.24493 -0.120225,0.0814 -0.322157,0.27641 -0.448756,0.43325 -0.126596,0.15688 -0.441246,0.47871 -0.699227,0.71518 -0.257975,0.23648 -0.813065,0.74712 -1.233531,1.13476 -0.420467,0.38768 -0.885424,0.8133 -1.033236,0.94587 -0.147821,0.1325 -0.531662,0.49032 -0.852996,0.79503 -0.78169,0.7413 -4.546085,3.87241 -4.671459,3.88558 -0.05454,0.006 -0.547043,0.38044 -1.094437,0.83267 -0.547397,0.45224 -1.049539,0.82795 -1.115878,0.83493 -0.06633,0.007 -0.362404,0.22093 -0.657923,0.47548 -0.295522,0.25454 -0.821344,0.65638 -1.168491,0.89303 -0.347152,0.23663 -0.825941,0.58216 -1.063974,0.76787 -0.238034,0.18569 -0.695097,0.51517 -1.015693,0.73219 -0.320596,0.21699 -0.713414,0.48941 -0.872929,0.60535 -0.159522,0.1159 -0.355816,0.2532 -0.436219,0.30503 -0.166789,0.10753 -0.80363,0.54406 -2.147244,1.47187 -0.513385,0.35451 -0.967007,0.64811 -1.00805,0.65243 -0.04101,0.005 -0.396652,0.23006 -0.790236,0.50167 -0.393586,0.27161 -0.764163,0.49893 -0.823505,0.50517 -0.05933,0.006 -0.277345,0.16363 -0.484424,0.34993 -0.207086,0.18624 -0.422188,0.3434 -0.478,0.34926 -0.102672,0.0108 -0.343939,0.16061 -1.448281,0.89953 -0.335401,0.2244 -0.694162,0.43618 -0.797253,0.47065 -0.103092,0.0345 -0.268518,0.12132 -0.367622,0.19306 -0.287563,0.20812 -0.804314,0.5336 -1.645877,1.03659 -1.017788,0.60831 -1.054497,0.62983 -1.862338,1.09259 -0.377885,0.21645 -0.818703,0.47774 -0.979589,0.58063 -0.160879,0.10297 -0.558158,0.33294 -0.882826,0.51122 -0.547358,0.30054 -1.603773,0.90258 -2.061799,1.17499 -0.107731,0.064 -0.351263,0.19751 -0.541175,0.29651 -0.189907,0.0991 -0.433147,0.23525 -0.54052,0.30274 -0.107372,0.0675 -0.551172,0.30041 -0.986214,0.51763 -0.435039,0.21721 -0.878739,0.45109 -0.985993,0.51971 -0.107258,0.0686 -0.373141,0.21211 -0.590857,0.31885 -0.217729,0.10663 -0.438385,0.23489 -0.490372,0.28484 -0.05198,0.0499 -0.252534,0.14677 -0.445667,0.21513 -0.193135,0.0683 -0.393586,0.16609 -0.445438,0.21729 -0.05185,0.0512 -0.762154,0.42172 -1.578435,0.82352 -0.816279,0.40179 -1.572381,0.78206 -1.680226,0.84508 -0.369674,0.21599 -0.789161,0.42527 -1.829219,0.91265 -0.572751,0.26837 -1.287023,0.60902 -1.587271,0.75698 -0.300249,0.14795 -0.703022,0.32566 -0.89505,0.39492 -0.192028,0.0692 -0.391234,0.17093 -0.442691,0.22588 -0.05147,0.055 -0.341101,0.19517 -0.643659,0.31152 -0.302549,0.11644 -0.615006,0.26236 -0.694334,0.32442 -0.07932,0.062 -0.905769,0.44143 -1.83654,0.84301 -2.060463,0.88903 -5.249233,2.25191 -5.726316,2.44742 -0.192043,0.0787 -0.871228,0.36322 -1.509293,0.63225 -0.638065,0.26901 -1.356941,0.55795 -1.597504,0.64204 -0.48097,0.16809 -2.687527,1.00436 -3.238206,1.2272 -0.395256,0.15992 -4.355296,1.58828 -4.762392,1.71773 -0.138448,0.0441 -0.477394,0.16079 -0.753202,0.25939 -1.091146,0.39023 -1.295587,0.4092 -1.520067,0.14121 z M 210.07789,186.34041 c -0.26745,-0.18847 -0.7699,-0.48883 -1.11655,-0.66742 -0.34665,-0.17863 -0.66189,-0.37116 -0.70051,-0.42785 -0.0386,-0.0565 -0.4272,-0.29124 -0.86347,-0.52119 -0.43627,-0.22997 -0.84623,-0.47704 -0.91105,-0.54909 -0.0649,-0.072 -0.48925,-0.32347 -0.94323,-0.55869 -0.45399,-0.23525 -0.87819,-0.48406 -0.94266,-0.55294 -0.0645,-0.0689 -0.48863,-0.31749 -0.94258,-0.55251 -0.45397,-0.23504 -0.87829,-0.48512 -0.94295,-0.55581 -0.0647,-0.0706 -0.57193,-0.3623 -1.12724,-0.64803 -0.55533,-0.28574 -1.029,-0.55974 -1.05261,-0.6089 -0.0236,-0.0492 -0.53879,-0.3522 -1.14488,-0.67344 -0.60611,-0.32126 -1.15485,-0.64139 -1.21949,-0.71148 -0.0646,-0.07 -0.69851,-0.42851 -1.40876,-0.79657 -0.71025,-0.36808 -1.32009,-0.71141 -1.35522,-0.76297 -0.0353,-0.0515 -0.81932,-0.48806 -1.74265,-0.97003 -0.92334,-0.48191 -1.73177,-0.93502 -1.79657,-1.0069 -0.0649,-0.0718 -1.20774,-0.69883 -2.53985,-1.39325 -1.33215,-0.69441 -2.52465,-1.34739 -2.65001,-1.45106 -0.28743,-0.23772 -11.13166,-5.89191 -11.2719,-5.87717 -0.0569,0.006 -1.38915,-0.66133 -2.96057,-1.48292 -1.5714,-0.8216 -2.90575,-1.4887 -2.96525,-1.48245 -0.0596,0.006 -0.88117,-0.39458 -1.82594,-0.89075 -0.94479,-0.49616 -1.92781,-0.97952 -2.18449,-1.0741 -0.25666,-0.0945 -1.07141,-0.49055 -1.81054,-0.87995 -0.73909,-0.38938 -1.39406,-0.7027 -1.45542,-0.69624 -0.0614,0.006 -0.75241,-0.32458 -1.53562,-0.73565 -0.7832,-0.41106 -1.46903,-0.74264 -1.52408,-0.73686 -0.0551,0.006 -0.66075,-0.2804 -1.34603,-0.63597 -0.68526,-0.35555 -1.2952,-0.64129 -1.35535,-0.63497 -0.0601,0.006 -0.49813,-0.19757 -0.97329,-0.45305 -0.47512,-0.25549 -1.15701,-0.58007 -1.51526,-0.72125 -0.35824,-0.1412 -0.94957,-0.42105 -1.31409,-0.62192 -0.36451,-0.20086 -0.71702,-0.35962 -0.78332,-0.35282 -0.0662,0.007 -0.54955,-0.21166 -1.07384,-0.48547 -0.52429,-0.27381 -0.99942,-0.493 -1.05586,-0.48707 -0.0564,0.006 -0.44218,-0.16882 -0.85725,-0.38833 -0.41504,-0.21949 -0.79184,-0.3952 -0.83733,-0.39041 -0.0727,0.007 -3.60223,-1.50211 -4.77766,-2.04361 -0.24059,-0.1109 -0.51059,-0.22928 -0.60002,-0.26323 -0.0893,-0.034 -0.4317,-0.1719 -0.76063,-0.30657 -0.32895,-0.13466 -1.13632,-0.46478 -1.79412,-0.73355 -0.65785,-0.26881 -1.44105,-0.59206 -1.74049,-0.71838 -0.29945,-0.12628 -1.0824,-0.44708 -1.73991,-0.71279 -0.65749,-0.26573 -1.44031,-0.58492 -1.73954,-0.70935 -0.29925,-0.12446 -0.76403,-0.3139 -1.03287,-0.42111 -1.03079,-0.41102 -2.90312,-1.17193 -3.42419,-1.39155 -0.29944,-0.12617 -1.1094,-0.46866 -1.79988,-0.76098 -0.69051,-0.29233 -1.28642,-0.52824 -1.32427,-0.52427 -0.0378,0.004 -0.36502,-0.15001 -0.727,-0.34221 -0.36201,-0.1922 -0.71176,-0.34382 -0.77725,-0.33694 -0.0655,0.007 -0.4533,-0.16764 -0.86179,-0.38783 -0.40853,-0.2202 -0.79378,-0.395 -0.85617,-0.38845 -0.13304,0.0143 -5.06122,-2.53567 -5.31321,-2.74888 -0.0943,-0.0798 -0.4477,-0.32413 -0.78548,-0.54313 -0.97395,-0.63137 -1.9661,-1.49112 -2.41436,-2.09218 -0.54476,-0.73045 -0.62184,-0.89154 -0.7904,-1.65161 -0.12518,-0.56412 -0.11695,-0.71617 0.0669,-1.24175 0.5149,-1.47204 2.87667,-2.53547 6.4701,-2.91327 1.41001,-0.14824 4.79754,-0.16716 6.00606,-0.0334 1.07802,0.11921 1.66236,0.17937 2.0251,0.20859 0.202,0.0167 0.65397,0.0838 1.00437,0.15012 0.35039,0.0664 0.94634,0.16751 1.32439,0.22471 0.37802,0.0573 0.87781,0.13401 1.11059,0.17074 0.23278,0.0366 0.56541,0.0827 0.73918,0.10212 0.17377,0.0192 0.36655,0.0719 0.42847,0.11638 0.062,0.0444 0.37435,0.12129 0.69433,0.17065 0.31997,0.0494 0.63222,0.12418 0.69388,0.16628 0.0617,0.042 0.37403,0.11815 0.69418,0.16908 0.32014,0.051 0.65602,0.12796 0.74641,0.17119 0.0904,0.0432 0.45116,0.13424 0.80173,0.2022 0.35054,0.068 0.92846,0.22013 1.28428,0.33815 0.3558,0.11805 0.92492,0.29777 1.2647,0.39939 0.33975,0.1016 0.89582,0.26846 1.23567,0.37072 0.33984,0.1023 0.71461,0.21501 0.83282,0.25056 0.25154,0.0757 1.11458,0.41052 1.73577,0.67353 0.2396,0.10137 0.47169,0.1805 0.51572,0.17569 0.0704,-0.007 0.54254,0.1717 2.19184,0.83301 1.16433,0.46686 2.66696,1.1265 3.14129,1.37901 0.29063,0.15475 0.58436,0.27606 0.65271,0.26961 0.0683,-0.006 0.4967,0.19014 0.95188,0.43684 0.45519,0.24671 0.88095,0.44354 0.94614,0.43743 0.15552,-0.015 4.57086,2.28653 4.80387,2.50365 0.0987,0.092 0.66696,0.42437 1.2625,0.73845 0.59553,0.31406 1.31379,0.71759 1.59615,0.89672 0.50289,0.31905 0.8194,0.5048 2.30277,1.35148 0.40378,0.23046 0.8117,0.48846 0.90648,0.57335 0.0949,0.0849 0.38225,0.25838 0.63888,0.38562 0.2566,0.12721 0.47101,0.27366 0.47646,0.32543 0.006,0.0517 0.20145,0.18093 0.43558,0.28707 0.23408,0.10611 0.49592,0.25811 0.5818,0.33767 0.14665,0.13593 1.02937,0.69559 1.81545,1.15102 0.47627,0.27593 1.21187,0.78564 1.35479,0.93876 0.0646,0.0691 0.27719,0.19921 0.47266,0.28914 0.19546,0.0899 0.35956,0.20326 0.36468,0.25187 0.005,0.0486 0.18192,0.17166 0.39294,0.27348 0.21103,0.10188 0.38825,0.22858 0.39384,0.28175 0.006,0.0531 0.16346,0.16722 0.35086,0.25353 0.28608,0.13173 0.97014,0.58344 2.16762,1.43133 0.20195,0.14298 1.22919,0.88533 1.97076,1.42416 1.15078,0.83618 2.17681,1.57497 2.70196,1.9455 0.33999,0.23989 0.79747,0.58273 1.01663,0.76185 0.56529,0.46205 0.6496,0.52665 1.40982,1.08002 0.37451,0.27261 0.75544,0.55552 0.84654,0.62865 0.0912,0.0732 0.45222,0.34653 0.80251,0.60752 0.35028,0.26098 0.71443,0.54562 0.80922,0.63259 0.0948,0.087 0.387,0.3239 0.64938,0.52657 0.26236,0.20266 0.59302,0.46393 0.73475,0.58062 0.14172,0.11661 0.55783,0.44967 0.92469,0.74003 0.36683,0.29038 0.8748,0.69892 1.12886,0.90788 0.25404,0.20892 0.63655,0.51858 0.85003,0.68808 0.21343,0.16949 0.64949,0.53148 0.96904,0.80438 0.8652,0.73896 1.0976,0.93333 1.94897,1.63003 0.42745,0.34978 0.9682,0.80426 1.20172,1.00995 0.23349,0.20571 1.05876,0.92631 1.83387,1.60135 4.21209,3.66815 11.88654,10.9005 13.79852,13.00369 0.19417,0.21355 0.53528,0.56314 0.75806,0.77686 0.42628,0.40893 0.85186,0.84695 2.10033,2.16188 0.41834,0.44057 1.00851,1.04965 1.31151,1.35352 0.47459,0.47595 0.54746,0.60251 0.52607,0.91388 -0.0471,0.6858 -0.17532,0.7207 -0.86415,0.23529 z M 101.7806,118.14787 C 97.787223,116.17308 92.501332,105.62158 89.32055,93.275601 87.864746,87.625006 86.566684,80.019859 86.072484,74.245693 84.175673,52.083609 85.504741,26.866777 89.867704,2.2376272 c 0.54104,-3.05412011 0.561485,-3.13188927 0.865583,-3.2924593 0.576727,-0.3045207 0.592166,-0.242691 0.770491,3.0844406 1.032865,19.2710965 2.833915,37.5971635 6.014665,61.2004005 1.566693,11.625851 2.325672,16.36258 4.683617,29.229919 1.81197,9.887902 2.27522,12.737912 2.64743,16.287232 0.28444,2.71209 0.35486,5.03393 0.19182,6.31898 -0.16006,1.26158 -0.5943,2.3601 -1.1388,2.88116 -0.65726,0.62901 -1.15946,0.67649 -2.12187,0.20059 z"
       id="path7830" />
    <path
       style="fill:#cb3c33;fill-opacity:1;stroke:none;stroke-width:0;stroke-miterlimit:4;stroke-dasharray:none;stroke-dashoffset:0"
       d="m 12.595465,207.61006 c -0.01187,-0.16428 1.445124,-1.33571 3.237834,-2.60318 15.477879,-10.94309 42.481209,-33.86307 58.263731,-49.4533 12.869345,-12.71256 16.753825,-16.10414 19.398353,-16.93691 0.954493,-0.30058 1.444133,-0.22195 2.143017,0.34396 1.137016,0.92072 1.218036,1.70676 0.505244,4.90171 -1.580086,7.08245 -8.611924,17.82116 -17.173559,26.22669 -13.194869,12.9543 -36.394886,26.79978 -59.475935,35.49453 -6.121646,2.30606 -6.862661,2.52374 -6.89868,2.0265 z"
       id="path11861" />
    <path
       style="fill:#389826;fill-opacity:1;stroke:none;stroke-width:0;stroke-miterlimit:4;stroke-dasharray:none;stroke-dashoffset:0"
       d="M 101.7806,118.14787 C 98.118512,116.11244 92.773079,105.08602 89.5807,92.982257 87.838913,86.378335 85.632302,65.453935 85.667124,55.871339 c 0.03382,-9.306179 0.480723,-19.133705 1.246922,-27.419966 0.90905,-9.83112 3.544844,-28.11873916 4.162721,-28.88176095 0.11914,-0.14711397 0.500461,3.85519885 0.847326,8.89403585 0.899051,13.0584031 5.465644,55.1883111 7.096242,65.4676271 0.757642,4.77619 2.273855,13.641929 3.369335,19.701652 1.16011,6.417203 2.18303,13.377493 2.44979,16.669203 0.40533,5.00199 0.37543,5.79032 -0.26026,6.85917 -0.88183,1.48276 -1.50847,1.70366 -2.79864,0.98656 z"
       id="path14976" />
    <path
       style="fill:#9558b2;fill-opacity:1;stroke:none;stroke-width:0;stroke-miterlimit:4;stroke-dasharray:none;stroke-dashoffset:0"
       d="m 208.68174,185.24635 c -20.63233,-12.6272 -48.89186,-26.82276 -73.90198,-37.12304 -16.26549,-6.69886 -19.96607,-8.99882 -19.7109,-12.25061 0.18034,-2.29893 7.13668,-3.67493 14.11442,-2.79194 12.08825,1.52973 23.76548,6.48745 39.09688,16.59913 9.2961,6.13115 21.41974,15.79529 30.6445,24.42771 6.99016,6.54129 12.35718,12.1941 11.57305,12.18931 -0.0552,-4e-5 -0.87239,-0.4731 -1.81597,-1.05056 z"
       id="path21859" />
    <path
       style="fill:none;fill-opacity:1;stroke-width:0.110953;image-rendering:auto"
       d="m 349.61225,201.4134 c -0.0996,-0.14804 -0.18075,-0.32518 -0.18031,-0.39365 8.7e-4,-0.13684 0.744,-0.65977 0.93759,-0.65977 0.0667,0 0.38952,-0.18735 0.71748,-0.41633 0.32795,-0.22899 0.65057,-0.41634 0.71693,-0.41634 0.0663,0 0.48398,-0.24087 0.92805,-0.53528 0.44408,-0.2944 0.8572,-0.53528 0.91805,-0.53528 0.0609,0 0.46512,-0.24087 0.89837,-0.53528 0.43324,-0.2944 0.84001,-0.53528 0.90393,-0.53528 0.0639,0 0.47955,-0.24087 0.92362,-0.53528 0.44408,-0.2944 0.85247,-0.53528 0.90753,-0.53528 0.0551,0 0.54377,-0.2944 1.086,-0.65422 0.54223,-0.35983 1.03029,-0.65424 1.08457,-0.65424 0.0543,0 0.58568,-0.32117 1.18088,-0.7137 0.59521,-0.39254 1.12917,-0.71371 1.18658,-0.71371 0.0574,0 0.66597,-0.3747 1.35234,-0.83266 0.68637,-0.45796 1.2988,-0.83265 1.36096,-0.83265 0.0622,0 0.7141,-0.40162 1.44876,-0.89245 0.73465,-0.49085 1.53724,-0.99298 1.78352,-1.11584 0.24628,-0.12293 1.46391,-0.89888 2.70584,-1.72447 1.24194,-0.82561 2.30468,-1.5011 2.36166,-1.5011 0.14114,0 10.33386,-6.75727 10.59356,-7.02299 0.11384,-0.11647 1.39455,-1.00147 2.84602,-1.96662 1.45147,-0.96513 2.68561,-1.81901 2.74253,-1.89749 0.0569,-0.0785 0.82535,-0.61384 1.70761,-1.18969 0.88227,-0.57584 1.72055,-1.16396 1.86285,-1.30692 0.14231,-0.14295 0.8529,-0.64693 1.5791,-1.11993 0.72621,-0.47302 1.38562,-0.93501 1.46536,-1.02666 0.0797,-0.0916 0.67315,-0.52049 1.31867,-0.95294 0.64552,-0.43247 1.26682,-0.87959 1.38066,-0.99362 0.11384,-0.11409 0.60284,-0.46502 1.08667,-0.78 0.48382,-0.31495 1.04267,-0.7145 1.24189,-0.88787 0.19923,-0.17337 0.82794,-0.62624 1.39714,-1.00639 0.56921,-0.38014 1.05821,-0.73243 1.08666,-0.78288 0.0285,-0.0504 0.44761,-0.36821 0.93143,-0.70611 0.48382,-0.3379 1.02666,-0.73242 1.20631,-0.87671 0.46597,-0.37424 1.50704,-1.1353 2.31151,-1.68974 0.37968,-0.2617 0.77293,-0.57125 0.87387,-0.68788 0.10094,-0.11661 0.35332,-0.31215 0.56083,-0.43447 0.20752,-0.12237 0.49222,-0.33766 0.63268,-0.47856 0.14046,-0.14089 0.4781,-0.3955 0.75031,-0.5658 0.27222,-0.17029 0.49494,-0.351 0.49494,-0.4016 0,-0.0506 0.27943,-0.26855 0.62095,-0.48435 0.34152,-0.21581 0.62095,-0.43245 0.62095,-0.48144 0,-0.049 0.17951,-0.19435 0.39892,-0.323 0.2194,-0.12869 0.51047,-0.34478 0.64682,-0.4803 0.13635,-0.13558 0.44124,-0.39267 0.67754,-0.57143 0.2363,-0.17876 0.69755,-0.53914 1.02501,-0.80083 0.32746,-0.26169 0.76836,-0.60963 0.97978,-0.77319 1.01544,-0.78555 1.65633,-1.3057 2.42969,-1.97192 0.28682,-0.24709 0.87116,-0.71474 1.2419,-0.99393 0.68001,-0.51205 2.33645,-1.86418 2.53554,-2.0697 0.0854,-0.0881 0.35317,-0.28574 0.59508,-0.43909 0.24191,-0.15335 0.43984,-0.32141 0.43984,-0.37344 0,-0.052 0.17464,-0.19757 0.3881,-0.32335 0.21345,-0.12574 0.50452,-0.34622 0.64682,-0.48983 0.1423,-0.14361 0.43337,-0.36403 0.64682,-0.48983 0.21345,-0.12574 0.38809,-0.27129 0.38809,-0.32335 0,-0.052 0.19793,-0.22054 0.43984,-0.37445 0.24192,-0.15392 0.56825,-0.40151 0.72519,-0.55023 0.15695,-0.14872 0.51787,-0.41586 0.80206,-0.59364 0.28419,-0.17777 0.51671,-0.36315 0.51671,-0.41193 0,-0.0488 0.26779,-0.26043 0.59508,-0.47033 0.32729,-0.2099 0.68822,-0.47803 0.80206,-0.59583 0.22085,-0.22855 4.79979,-3.28892 5.09977,-3.40849 0.0981,-0.0391 0.55088,-0.27084 1.00624,-0.51501 2.48126,-1.33044 4.38979,-1.25578 5.136,0.20094 0.38525,0.75204 0.39598,1.68793 0.0373,3.24991 -0.25892,1.12751 -0.33044,1.35501 -0.67314,2.14112 -0.0998,0.22897 -0.21419,0.54013 -0.25414,0.69142 -0.04,0.1513 -0.2776,0.65982 -0.52808,1.13003 -0.25048,0.47022 -0.4984,0.9663 -0.55093,1.10239 -0.29916,0.77506 -3.21646,5.32796 -3.84292,5.9975 -0.0306,0.0327 -0.1626,0.22005 -0.2933,0.41632 -0.61197,0.91894 -3.13935,3.90852 -4.87722,5.76914 -1.73412,1.8566 -2.02708,2.16203 -2.33892,2.43849 -0.14759,0.1308 -0.34554,0.32162 -0.43989,0.42394 -0.0943,0.10228 -0.54411,0.52727 -0.99947,0.94436 -0.45537,0.41707 -0.89779,0.82774 -0.98318,0.91263 -0.0854,0.0849 -0.31723,0.31591 -0.51523,0.5134 -0.19799,0.19751 -0.44249,0.3892 -0.54333,0.42598 -0.10083,0.0368 -0.18334,0.11577 -0.18334,0.17541 0,0.0597 -0.18628,0.21773 -0.41396,0.35124 -0.22768,0.13347 -0.41397,0.28675 -0.41397,0.34056 0,0.0538 -0.163,0.19869 -0.36222,0.322 -0.19922,0.12335 -0.36222,0.26448 -0.36222,0.31369 0,0.0492 -0.18629,0.19872 -0.41397,0.33223 -0.22768,0.13347 -0.41396,0.28658 -0.41396,0.34017 0,0.0535 -0.10478,0.15341 -0.23286,0.22182 -0.12807,0.0684 -0.34928,0.24121 -0.49159,0.38398 -0.1423,0.14278 -0.48886,0.42995 -0.77015,0.63815 -0.28128,0.20822 -0.8867,0.65804 -1.34539,0.99962 -0.45868,0.34159 -0.96558,0.71628 -1.12644,0.83267 -0.16086,0.11632 -0.58001,0.43207 -0.93143,0.70152 -0.85489,0.65553 -4.92596,3.37599 -5.05202,3.37599 -0.0549,0 -0.58381,0.32117 -1.17548,0.71371 -0.59167,0.39254 -1.13034,0.71371 -1.19704,0.71371 -0.0667,0 -0.38351,0.18184 -0.70402,0.4041 -0.32051,0.22226 -0.88545,0.56694 -1.25544,0.766 -0.36998,0.19905 -0.88226,0.49265 -1.13841,0.65245 -0.25614,0.1598 -0.74514,0.4397 -1.08666,0.62201 -0.34152,0.18229 -0.76066,0.41215 -0.93142,0.51079 -0.17077,0.0986 -0.38034,0.21462 -0.46572,0.25776 -0.17711,0.0895 -0.85609,0.45707 -2.28933,1.23936 -0.54763,0.2989 -1.02946,0.54348 -1.07073,0.54348 -0.0413,0 -0.41852,0.18734 -0.83834,0.41632 -0.41982,0.22898 -0.81213,0.41632 -0.8718,0.41632 -0.0597,0 -0.29293,0.13375 -0.51835,0.29739 -0.22542,0.16356 -0.45577,0.29738 -0.51189,0.29738 -0.10321,0 -0.35884,0.12377 -1.53437,0.74321 -0.35702,0.18811 -0.73596,0.36125 -0.84208,0.38474 -0.10612,0.0235 -0.27973,0.0926 -0.38579,0.15358 -0.30774,0.17693 -0.85569,0.4466 -1.74521,0.85886 -1.0758,0.4986 -1.11456,0.51616 -1.96635,0.89194 -0.39844,0.17577 -0.86415,0.38954 -1.03491,0.47506 -0.17076,0.0856 -0.5899,0.27277 -0.93143,0.41613 -0.57577,0.24169 -1.68933,0.73 -2.17332,0.95304 -0.11384,0.0524 -0.36999,0.15971 -0.56921,0.23833 -0.19922,0.0787 -0.45536,0.18868 -0.5692,0.24457 -0.11384,0.0559 -0.57955,0.24115 -1.03492,0.4117 -0.45536,0.17056 -0.92108,0.35677 -1.03492,0.41381 -0.11383,0.057 -0.39326,0.17194 -0.62095,0.25534 -0.22768,0.0833 -0.46053,0.18779 -0.51745,0.23202 -0.0569,0.0443 -0.2665,0.11956 -0.46572,0.16736 -0.19922,0.0478 -0.40879,0.12405 -0.46571,0.16955 -0.0569,0.0455 -0.80206,0.33975 -1.65587,0.65401 -0.8538,0.31427 -1.64551,0.61343 -1.75935,0.66483 -0.39023,0.17616 -0.8293,0.34045 -1.9146,0.71644 -0.59767,0.20703 -1.34363,0.47115 -1.6577,0.58691 -0.31407,0.11577 -0.73321,0.25039 -0.93143,0.2992 -0.19821,0.0488 -0.40696,0.12911 -0.46388,0.17837 -0.0569,0.0493 -0.35963,0.15845 -0.67269,0.24255 -0.31306,0.0842 -0.63906,0.19662 -0.72444,0.25005 -0.0854,0.0534 -0.94695,0.34433 -1.9146,0.64642 -2.1421,0.66878 -5.45587,1.69087 -5.95077,1.83545 -0.19922,0.0582 -0.90442,0.27016 -1.56711,0.47102 -0.66269,0.20085 -1.40783,0.41305 -1.65587,0.47154 -0.4959,0.11689 -2.77779,0.71794 -3.34874,0.88199 -0.40981,0.11773 -4.49746,1.12433 -4.91586,1.21052 -0.1423,0.0294 -0.49158,0.11001 -0.77619,0.17924 -1.12596,0.27403 -1.33126,0.27153 -1.5265,-0.0185 z m 198.91895,-0.85028 c -0.24628,-0.21539 -0.71457,-0.56661 -1.04067,-0.78047 -0.32608,-0.21388 -0.61947,-0.4383 -0.65196,-0.49873 -0.0325,-0.0604 -0.3944,-0.33429 -0.80425,-0.60859 -0.40984,-0.2743 -0.79174,-0.56288 -0.84866,-0.64131 -0.057,-0.0784 -0.45277,-0.37283 -0.87967,-0.65423 -0.42691,-0.28141 -0.82276,-0.57319 -0.87969,-0.64844 -0.057,-0.0752 -0.45278,-0.36683 -0.87968,-0.64801 -0.4269,-0.2812 -0.82276,-0.57428 -0.87967,-0.65133 -0.057,-0.077 -0.53093,-0.42009 -1.05334,-0.76232 -0.52242,-0.34221 -0.96485,-0.66422 -0.98318,-0.71559 -0.0183,-0.0514 -0.49904,-0.40658 -1.06823,-0.78942 -0.56921,-0.38284 -1.08149,-0.75859 -1.13842,-0.83503 -0.057,-0.0764 -0.64992,-0.4992 -1.31779,-0.93948 -0.66788,-0.4403 -1.23851,-0.84549 -1.26805,-0.90044 -0.0296,-0.0549 -0.76382,-0.57104 -1.6317,-1.14686 -0.8679,-0.5758 -1.62456,-1.11095 -1.68148,-1.1892 -0.057,-0.0782 -1.12806,-0.82125 -2.38031,-1.6511 -1.25225,-0.82986 -2.36996,-1.60392 -2.4838,-1.72012 -0.26103,-0.26646 -10.45483,-7.0232 -10.59582,-7.0232 -0.0572,0 -1.31243,-0.80292 -2.78935,-1.78427 -1.4769,-0.98135 -2.73422,-1.78427 -2.79405,-1.78427 -0.0598,0 -0.83511,-0.48453 -1.72284,-1.07674 -0.88774,-0.59221 -1.81485,-1.17566 -2.06025,-1.29657 -0.24537,-0.12083 -1.01426,-0.59985 -1.70863,-1.06437 -0.69435,-0.46451 -1.31297,-0.84456 -1.37468,-0.84456 -0.0617,0 -0.71435,-0.40146 -1.4503,-0.89213 -0.73595,-0.49068 -1.38336,-0.89214 -1.43871,-0.89214 -0.0554,0 -0.62783,-0.34793 -1.27219,-0.77318 -0.64434,-0.42524 -1.22106,-0.77317 -1.28154,-0.77317 -0.0605,0 -0.47476,-0.24855 -0.92061,-0.55231 -0.44582,-0.30375 -1.09003,-0.69782 -1.43156,-0.87568 -0.34152,-0.17787 -0.90037,-0.518 -1.2419,-0.75587 -0.34152,-0.23786 -0.67549,-0.4326 -0.74214,-0.43277 -0.0666,0 -0.52441,-0.26795 -1.01721,-0.59506 -0.49281,-0.32712 -0.94241,-0.59476 -0.99916,-0.59476 -0.0567,0 -0.42211,-0.21411 -0.81195,-0.4758 -0.38984,-0.26169 -0.74621,-0.47581 -0.79193,-0.47581 -0.0731,0 -3.42551,-1.87041 -4.53789,-2.53182 -0.22768,-0.13543 -0.48382,-0.28139 -0.56921,-0.32451 -0.0853,-0.0431 -0.41137,-0.21608 -0.72443,-0.3844 -0.31307,-0.16831 -1.08149,-0.581 -1.70761,-0.91707 -0.62613,-0.33609 -1.37127,-0.73944 -1.65587,-0.89637 -0.2846,-0.15691 -1.02974,-0.55776 -1.65587,-0.89074 -0.62612,-0.333 -1.37126,-0.73228 -1.65586,-0.8873 -0.28461,-0.15502 -0.72704,-0.39206 -0.98318,-0.52677 -0.98219,-0.51652 -2.76473,-1.46897 -3.25999,-1.74185 -0.2846,-0.15683 -1.05432,-0.58205 -1.71047,-0.94495 -0.65617,-0.3629 -1.22417,-0.65982 -1.26223,-0.65982 -0.038,0 -0.34733,-0.18735 -0.68725,-0.41633 -0.33992,-0.22899 -0.67191,-0.41634 -0.73776,-0.41634 -0.0658,0 -0.4333,-0.21411 -0.81654,-0.47579 -0.38325,-0.2617 -0.74813,-0.47581 -0.81086,-0.47581 -0.13381,0 -4.76845,-3.05083 -4.99675,-3.28921 -0.0854,-0.0892 -0.41138,-0.36916 -0.72444,-0.62226 -0.90261,-0.72971 -1.79945,-1.68846 -2.18243,-2.33309 -0.46542,-0.78339 -0.52525,-0.95165 -0.61343,-1.72517 -0.0655,-0.57413 -0.0414,-0.72448 0.19635,-1.22797 0.66594,-1.41015 3.12593,-2.22088 6.73917,-2.221 1.41778,-3e-5 4.78874,0.33528 5.97665,0.59452 1.05965,0.23124 1.6345,0.35218 1.99222,0.41909 0.19922,0.0373 0.64164,0.15171 0.98317,0.25432 0.34152,0.1026 0.92366,0.26546 1.29364,0.36191 0.36999,0.0964 0.85899,0.22506 1.08666,0.28585 0.22769,0.0608 0.55369,0.14125 0.72445,0.17884 0.17076,0.0376 0.35704,0.10983 0.41397,0.16053 0.057,0.0507 0.35962,0.15974 0.67269,0.2423 0.31307,0.0826 0.61578,0.18962 0.67269,0.2379 0.057,0.0483 0.35964,0.15661 0.67271,0.24071 0.31305,0.0842 0.63905,0.19582 0.72443,0.24828 0.0854,0.0524 0.43466,0.18064 0.77619,0.28489 0.34152,0.10425 0.90037,0.31597 1.2419,0.47054 0.34152,0.15458 0.88874,0.39282 1.21603,0.52941 0.32728,0.13656 0.86285,0.36062 1.19015,0.49784 0.32729,0.13726 0.68823,0.28853 0.80206,0.33624 0.24225,0.10158 1.06557,0.52478 1.65587,0.85128 0.22768,0.12588 0.45022,0.22881 0.49453,0.22864 0.0709,0 0.52162,0.22746 2.09276,1.05755 1.10915,0.586 2.5346,1.3991 2.97994,1.69981 0.27287,0.18428 0.5523,0.33563 0.62095,0.33637 0.0687,10e-4 0.47409,0.24101 0.901,0.53394 0.4269,0.29293 0.82976,0.5332 0.89523,0.53394 0.15625,10e-4 4.30681,2.75178 4.51586,2.99206 0.0886,0.10186 0.61893,0.49177 1.17839,0.86637 0.55944,0.3746 1.23159,0.851 1.49367,1.05866 0.46679,0.36987 0.76215,0.58769 2.14888,1.58477 0.37749,0.27142 0.7562,0.57064 0.84159,0.66496 0.0854,0.0943 0.35315,0.29693 0.59507,0.45029 0.24191,0.15335 0.43983,0.32141 0.43983,0.37345 0,0.052 0.18144,0.20101 0.40318,0.33104 0.22173,0.12996 0.46624,0.30853 0.54333,0.39664 0.13164,0.15051 0.95102,0.79937 1.68519,1.33448 0.44482,0.3242 1.12311,0.90801 1.24924,1.07523 0.057,0.0754 0.25485,0.22709 0.43985,0.33696 0.18499,0.10986 0.33634,0.23973 0.33634,0.28861 0,0.0489 0.163,0.18974 0.36223,0.31305 0.19922,0.12335 0.36222,0.26792 0.36222,0.32138 0,0.0534 0.14509,0.1834 0.32244,0.28881 0.27073,0.16091 0.90383,0.68165 2.00612,1.65007 0.1859,0.16331 1.12992,1.00897 1.81111,1.62236 1.05707,0.9519 2.00024,1.79388 2.4838,2.21728 0.31305,0.27411 0.73219,0.66289 0.93142,0.86394 0.51389,0.5186 0.59099,0.59166 1.28921,1.22147 0.34395,0.31026 0.69324,0.63143 0.77619,0.7137 0.083,0.0823 0.4135,0.3919 0.7346,0.68807 0.32108,0.29615 0.65349,0.61731 0.73866,0.71371 0.0852,0.0964 0.35102,0.36258 0.59078,0.59156 0.23975,0.22898 0.54128,0.52338 0.67004,0.65424 0.12876,0.13079 0.50778,0.50553 0.84226,0.83264 0.33447,0.32713 0.79697,0.78652 1.02779,1.02089 0.23081,0.23435 0.57884,0.58229 0.77343,0.77317 0.19456,0.19089 0.59041,0.59647 0.87967,0.90127 0.78322,0.82536 0.99403,1.04295 1.76791,1.82483 0.38853,0.39254 0.87883,0.90105 1.08955,1.13003 0.21073,0.22898 0.95614,1.0319 1.65647,1.78427 3.80559,4.08833 10.68199,12.08327 12.36366,14.37479 0.17077,0.23267 0.47348,0.61601 0.6727,0.85184 0.38121,0.45125 0.75866,0.93136 1.86285,2.36958 0.36999,0.48189 0.89326,1.14933 1.16284,1.4832 0.42225,0.52295 0.48148,0.65643 0.42766,0.96386 -0.11857,0.67712 -0.24969,0.69843 -0.884,0.14367 z M 447.95523,121.424 c -3.76508,-2.38139 -7.91908,-13.42761 -9.79193,-26.038437 -0.85718,-5.77181 -1.35318,-13.47098 -1.2411,-19.26518 0.43014,-22.23895 4.38781,-47.17871 11.30132,-71.2168902 0.85731,-2.98083 0.88577,-3.05604 1.20499,-3.18394 0.6054,-0.24257 0.6143,-0.17946 0.44386,3.14808 -0.98717,19.2734902 -1.11158,37.6874302 -0.41546,61.4938402 0.34287,11.72593 0.60257,16.51605 1.6026,29.55937 0.76847,10.023127 0.93128,12.905947 0.93044,16.474737 -6.2e-4,2.72696 -0.17326,5.04345 -0.46979,6.30441 -0.2911,1.23793 -0.83774,2.28504 -1.43371,2.74634 -0.71943,0.55687 -1.22384,0.55158 -2.13122,-0.0223 z"
       id="path7830-5" />
    <text
       xml:space="preserve"
       style="font-style:oblique;font-variant:normal;font-weight:300;font-stretch:normal;font-size:105.833px;line-height:1.25;font-family:Helvetica;-inkscape-font-specification:'Helvetica, Light Oblique';font-variant-ligatures:normal;font-variant-caps:normal;font-variant-numeric:normal;font-variant-east-asian:normal;fill:#0d1117;fill-opacity:1;stroke:#c9d1d9;stroke-width:1.5;stroke-miterlimit:4;stroke-dasharray:none;stroke-opacity:1"
       x="118.46535"
       y="119.9494"
       id="text1791"
       transform="scale(1.0459594,0.95606006)"><tspan
         sodipodi:role="line"
         id="tspan1789"
         style="font-style:italic;font-variant:normal;font-weight:normal;font-stretch:normal;font-size:105.833px;font-family:'Euphemia UCAS';-inkscape-font-specification:'Euphemia UCAS, Italic';font-variant-ligatures:normal;font-variant-caps:normal;font-variant-numeric:normal;font-variant-east-asian:normal;stroke:#c9d1d9;stroke-width:1.5;stroke-miterlimit:4;stroke-dasharray:none;stroke-opacity:1;fill:#0d1117;fill-opacity:1"
         x="118.46535"
         y="119.9494">VSFlow</tspan></text>
    <text
       xml:space="preserve"
       transform="matrix(0.26458333,0,0,0.26458333,0.13298526,0.21493611)"
       id="text4881"
       style="font-style:normal;font-weight:normal;font-size:40px;line-height:1.25;font-family:sans-serif;white-space:pre;shape-inside:url(#rect4883);fill:#000000;fill-opacity:1;stroke:none" />
  </g>
</svg>
