<?xml version="1.0" encoding="UTF-8" standalone="no"?>
<!-- Created with Inkscape (http://www.inkscape.org/) -->

<svg
   width="200mm"
   height="200mm"
   viewBox="0 0 200 200"
   version="1.1"
   id="svg5"
   sodipodi:docname="dessin.svg"
   inkscape:export-filename="/Users/dedumoulin/Desktop/dessin.png"
   inkscape:export-xdpi="96"
   inkscape:export-ydpi="96"
   inkscape:version="1.1 (c4e8f9e, 2021-05-24)"
   xmlns:inkscape="http://www.inkscape.org/namespaces/inkscape"
   xmlns:sodipodi="http://sodipodi.sourceforge.net/DTD/sodipodi-0.dtd"
   xmlns="http://www.w3.org/2000/svg"
   xmlns:svg="http://www.w3.org/2000/svg">
  <sodipodi:namedview
     id="namedview7"
     pagecolor="#505050"
     bordercolor="#ffffff"
     borderopacity="1"
     inkscape:pageshadow="0"
     inkscape:pageopacity="0"
     inkscape:pagecheckerboard="1"
     inkscape:document-units="mm"
     showgrid="false"
     inkscape:zoom="0.57413326"
     inkscape:cx="220.33212"
     inkscape:cy="217.71949"
     inkscape:window-width="1394"
     inkscape:window-height="826"
     inkscape:window-x="17"
     inkscape:window-y="36"
     inkscape:window-maximized="0"
     inkscape:current-layer="layer1"
     height="296mm" />
  <defs
     id="defs2" />
  <g
     inkscape:label="Calque 1"
     inkscape:groupmode="layer"
     id="layer1">
    <path
       style="fill:none;stroke-width:0.110953;image-rendering:auto;fill-opacity:1"
       d="m 0.31330033,199.99398 c -0.099611,-0.14804 -0.1807517,-0.32518 -0.1803133,-0.39365 8.766e-4,-0.13684 0.744002,-0.65977 0.93759367,-0.65977 0.066658,0 0.3895222,-0.18735 0.7174761,-0.41633 0.3279541,-0.22899 0.650572,-0.41634 0.7169287,-0.41634 0.066357,0 0.4839825,-0.24087 0.928057,-0.53528 0.4440745,-0.2944 0.8571977,-0.53528 0.9180518,-0.53528 0.060854,0 0.4651174,-0.24087 0.8983631,-0.53528 0.4332458,-0.2944 0.8400161,-0.53528 0.9039341,-0.53528 0.063917,0 0.4795482,-0.24087 0.9236227,-0.53528 0.4440744,-0.2944 0.8524618,-0.53528 0.9075274,-0.53528 0.055065,0 0.5437647,-0.2944 1.0859981,-0.65422 0.542233,-0.35983 1.0302893,-0.65424 1.0845683,-0.65424 0.05428,0 0.585678,-0.32117 1.180884,-0.7137 0.595206,-0.39254 1.129167,-0.71371 1.186582,-0.71371 0.05741,0 0.665964,-0.3747 1.352336,-0.83266 0.686372,-0.45796 1.298804,-0.83265 1.360963,-0.83265 0.06216,0 0.714097,-0.40162 1.448754,-0.89245 0.734657,-0.49085 1.537242,-0.99298 1.783522,-1.11584 0.24628,-0.12293 1.46391,-0.89888 2.705844,-1.72447 1.241935,-0.82561 2.304681,-1.5011 2.361659,-1.5011 0.141143,0 10.333858,-6.75727 10.593557,-7.02299 0.113837,-0.11647 1.39455,-1.00147 2.846021,-1.96662 1.451471,-0.96513 2.685609,-1.81901 2.74253,-1.89749 0.05692,-0.0785 0.825347,-0.61384 1.707613,-1.18969 0.882266,-0.57584 1.720549,-1.16396 1.86285,-1.30692 0.142302,-0.14295 0.852897,-0.64693 1.579101,-1.11993 0.726206,-0.47302 1.385617,-0.93501 1.46536,-1.02666 0.07975,-0.0916 0.673143,-0.52049 1.318666,-0.95294 0.645523,-0.43247 1.266821,-0.87959 1.380662,-0.99362 0.113837,-0.11409 0.602839,-0.46502 1.086663,-0.78 0.483824,-0.31495 1.042679,-0.7145 1.2419,-0.88787 0.199221,-0.17337 0.827933,-0.62624 1.397138,-1.00639 0.569204,-0.38014 1.058202,-0.73243 1.086662,-0.78288 0.02846,-0.0504 0.447601,-0.36821 0.931425,-0.70611 0.483824,-0.3379 1.026663,-0.73242 1.20631,-0.87671 0.46597,-0.37424 1.507043,-1.1353 2.311506,-1.68974 0.379688,-0.2617 0.772933,-0.57125 0.873877,-0.68788 0.100941,-0.11661 0.35332,-0.31215 0.560832,-0.43447 0.207513,-0.12237 0.492217,-0.33766 0.632675,-0.47856 0.140456,-0.14089 0.478097,-0.3955 0.750314,-0.5658 0.272215,-0.17029 0.494938,-0.351 0.494938,-0.4016 0,-0.0506 0.279427,-0.26855 0.62095,-0.48435 0.341522,-0.21581 0.62095,-0.43245 0.62095,-0.48144 0,-0.049 0.179512,-0.19435 0.398915,-0.323 0.219405,-0.12869 0.510475,-0.34478 0.646824,-0.4803 0.136349,-0.13558 0.441241,-0.39267 0.677538,-0.57143 0.236297,-0.17876 0.697553,-0.53914 1.025011,-0.80083 0.32746,-0.26169 0.768359,-0.60963 0.979777,-0.77319 1.015439,-0.78555 1.656335,-1.3057 2.429691,-1.97192 0.286817,-0.24709 0.871158,-0.71474 1.2419,-0.99393 0.680009,-0.51205 2.336448,-1.86418 2.535546,-2.0697 0.08538,-0.0881 0.353165,-0.28574 0.595077,-0.43909 0.241912,-0.15335 0.43984,-0.32141 0.43984,-0.37344 0,-0.052 0.174642,-0.19757 0.388094,-0.32335 0.213451,-0.12574 0.504522,-0.34622 0.646822,-0.48983 0.142302,-0.14361 0.433372,-0.36403 0.646824,-0.48983 0.213451,-0.12574 0.388093,-0.27129 0.388093,-0.32335 0,-0.052 0.197928,-0.22054 0.43984,-0.37445 0.241912,-0.15392 0.568247,-0.40151 0.72519,-0.55023 0.156941,-0.14872 0.517869,-0.41586 0.802061,-0.59364 0.28419,-0.17777 0.51671,-0.36315 0.51671,-0.41193 0,-0.0488 0.267785,-0.26043 0.595077,-0.47033 0.327293,-0.2099 0.68822,-0.47803 0.802061,-0.59583 0.220844,-0.22855 4.799784,-3.28892 5.09977,-3.40849 0.09807,-0.0391 0.550876,-0.27084 1.006239,-0.51501 2.481254,-1.33044 4.389792,-1.25578 5.136001,0.20094 0.385243,0.75204 0.395981,1.68793 0.03729,3.24991 -0.258921,1.12751 -0.330447,1.35501 -0.673139,2.14112 -0.09982,0.22897 -0.214189,0.54013 -0.254148,0.69142 -0.03996,0.1513 -0.277594,0.65982 -0.528074,1.13003 -0.250482,0.47022 -0.4984,0.9663 -0.55093,1.10239 -0.299162,0.77506 -3.216462,5.32796 -3.842926,5.9975 -0.03061,0.0327 -0.162592,0.22005 -0.293297,0.41632 -0.611964,0.91894 -3.139352,3.90852 -4.877221,5.76914 -1.734118,1.8566 -2.027075,2.16203 -2.338917,2.43849 -0.14759,0.1308 -0.34554,0.32162 -0.439887,0.42394 -0.09435,0.10228 -0.544114,0.52727 -0.999478,0.94436 -0.455363,0.41707 -0.89779,0.82774 -0.983171,0.91263 -0.08538,0.0849 -0.317234,0.31591 -0.515231,0.5134 -0.197996,0.19751 -0.442495,0.3892 -0.543331,0.42598 -0.100831,0.0368 -0.183338,0.11577 -0.183338,0.17541 0,0.0597 -0.186285,0.21773 -0.413967,0.35124 -0.227681,0.13347 -0.413966,0.28675 -0.413966,0.34056 0,0.0538 -0.163,0.19869 -0.362222,0.322 -0.199221,0.12335 -0.36222,0.26448 -0.36222,0.31369 0,0.0492 -0.186285,0.19872 -0.413968,0.33223 -0.22768,0.13347 -0.413965,0.28658 -0.413965,0.34017 0,0.0535 -0.10478,0.15341 -0.232857,0.22182 -0.128071,0.0684 -0.349284,0.24121 -0.491586,0.38398 -0.142301,0.14278 -0.488868,0.42995 -0.77015,0.63815 -0.281282,0.20822 -0.886708,0.65804 -1.345391,0.99962 -0.458686,0.34159 -0.965585,0.71628 -1.126445,0.83267 -0.160862,0.11632 -0.580003,0.43207 -0.931426,0.70152 -0.854896,0.65553 -4.925959,3.37599 -5.052023,3.37599 -0.05485,0 -0.583813,0.32117 -1.175479,0.71371 -0.591668,0.39254 -1.130335,0.71371 -1.197038,0.71371 -0.0667,0 -0.383512,0.18184 -0.70402,0.4041 -0.32051,0.22226 -0.885456,0.56694 -1.255438,0.766 -0.369984,0.19905 -0.882268,0.49265 -1.138409,0.65245 -0.256142,0.1598 -0.745141,0.4397 -1.086663,0.62201 -0.341523,0.18229 -0.760664,0.41215 -0.931425,0.51079 -0.170762,0.0986 -0.380332,0.21462 -0.465713,0.25776 -0.177116,0.0895 -0.856096,0.45707 -2.289334,1.23936 -0.547629,0.2989 -1.029456,0.54348 -1.070725,0.54348 -0.04127,0 -0.418525,0.18734 -0.838345,0.41632 -0.41982,0.22898 -0.812129,0.41632 -0.8718,0.41632 -0.05968,0 -0.292927,0.13375 -0.518347,0.29739 -0.22542,0.16356 -0.45577,0.29738 -0.51189,0.29738 -0.103215,0 -0.358841,0.12377 -1.534374,0.74321 -0.357019,0.18811 -0.735954,0.36125 -0.842079,0.38474 -0.106124,0.0235 -0.27973,0.0926 -0.385791,0.15358 -0.307742,0.17693 -0.855684,0.4466 -1.745212,0.85886 -1.075801,0.4986 -1.114556,0.51616 -1.966343,0.89194 -0.398442,0.17577 -0.864155,0.38954 -1.034916,0.47506 -0.170761,0.0856 -0.589902,0.27277 -0.931425,0.41613 -0.575776,0.24169 -1.689334,0.73 -2.173325,0.95304 -0.113837,0.0524 -0.369984,0.15971 -0.569205,0.23833 -0.199221,0.0787 -0.455363,0.18868 -0.569205,0.24457 -0.113837,0.0559 -0.579553,0.24115 -1.034916,0.4117 -0.455364,0.17056 -0.921077,0.35677 -1.034917,0.41381 -0.113837,0.057 -0.393268,0.17194 -0.62095,0.25534 -0.227682,0.0833 -0.460539,0.18779 -0.517458,0.23202 -0.05692,0.0443 -0.266492,0.11956 -0.465713,0.16736 -0.199222,0.0478 -0.408793,0.12405 -0.465712,0.16955 -0.05692,0.0455 -0.802061,0.33975 -1.655868,0.65401 -0.853806,0.31427 -1.645518,0.61343 -1.759358,0.66483 -0.390226,0.17616 -0.829291,0.34045 -1.914597,0.71644 -0.597664,0.20703 -1.34363,0.47115 -1.6577,0.58691 -0.31407,0.11577 -0.733211,0.25039 -0.931425,0.2992 -0.198214,0.0488 -0.406959,0.12911 -0.463879,0.17837 -0.05692,0.0493 -0.359634,0.15845 -0.672697,0.24255 -0.313061,0.0842 -0.63906,0.19662 -0.724441,0.25005 -0.08538,0.0534 -0.946949,0.34433 -1.914597,0.64642 -2.142104,0.66878 -5.455865,1.69087 -5.950771,1.83545 -0.199221,0.0582 -0.904423,0.27016 -1.567113,0.47102 -0.66269,0.20085 -1.40783,0.41305 -1.655866,0.47154 -0.495904,0.11689 -2.7777876,0.71794 -3.3487437,0.88199 -0.4098067,0.11773 -4.4974569,1.12433 -4.915855,1.21052 -0.1423011,0.0294 -0.4915856,0.11001 -0.7761877,0.17924 -1.12595987,0.27403 -1.33126397,0.27153 -1.52650237,-0.0185 z M 199.23225,199.1437 c -0.24628,-0.21539 -0.71457,-0.56661 -1.04067,-0.78047 -0.32608,-0.21388 -0.61947,-0.4383 -0.65196,-0.49873 -0.0325,-0.0604 -0.3944,-0.33429 -0.80425,-0.60859 -0.40984,-0.2743 -0.79174,-0.56288 -0.84866,-0.64131 -0.057,-0.0784 -0.45277,-0.37283 -0.87967,-0.65423 -0.42691,-0.28141 -0.82276,-0.57319 -0.87969,-0.64844 -0.057,-0.0752 -0.45278,-0.36683 -0.87968,-0.64801 -0.4269,-0.2812 -0.82276,-0.57428 -0.87967,-0.65133 -0.057,-0.077 -0.53093,-0.42009 -1.05334,-0.76232 -0.52242,-0.34221 -0.96485,-0.66422 -0.98318,-0.71559 -0.0183,-0.0514 -0.49904,-0.40658 -1.06823,-0.78942 -0.56921,-0.38284 -1.08149,-0.75859 -1.13842,-0.83503 -0.057,-0.0764 -0.64992,-0.4992 -1.31779,-0.93948 -0.66788,-0.4403 -1.23851,-0.84549 -1.26805,-0.90044 -0.0296,-0.0549 -0.76382,-0.57104 -1.6317,-1.14686 -0.8679,-0.5758 -1.62456,-1.11095 -1.68148,-1.1892 -0.057,-0.0782 -1.12806,-0.82125 -2.38031,-1.6511 -1.25225,-0.82986 -2.36996,-1.60392 -2.4838,-1.72012 -0.26103,-0.26646 -10.45483,-7.0232 -10.59582,-7.0232 -0.0572,0 -1.31243,-0.80292 -2.78935,-1.78427 -1.4769,-0.98135 -2.73422,-1.78427 -2.79405,-1.78427 -0.0598,0 -0.83511,-0.48453 -1.72284,-1.07674 -0.88774,-0.59221 -1.81485,-1.17566 -2.06025,-1.29657 -0.24537,-0.12083 -1.01426,-0.59985 -1.70863,-1.06437 -0.69435,-0.46451 -1.31297,-0.84456 -1.37468,-0.84456 -0.0617,0 -0.71435,-0.40146 -1.4503,-0.89213 -0.73595,-0.49068 -1.38336,-0.89214 -1.43871,-0.89214 -0.0554,0 -0.62783,-0.34793 -1.27219,-0.77318 -0.64434,-0.42524 -1.22106,-0.77317 -1.28154,-0.77317 -0.0605,0 -0.47476,-0.24855 -0.92061,-0.55231 -0.44582,-0.30375 -1.09003,-0.69782 -1.43156,-0.87568 -0.34152,-0.17787 -0.90037,-0.518 -1.2419,-0.75587 -0.34152,-0.23786 -0.67549,-0.4326 -0.74214,-0.43277 -0.0666,0 -0.52441,-0.26795 -1.01721,-0.59506 -0.49281,-0.32712 -0.94241,-0.59476 -0.99916,-0.59476 -0.0567,0 -0.42211,-0.21411 -0.81195,-0.4758 -0.38984,-0.26169 -0.74621,-0.47581 -0.79193,-0.47581 -0.0731,0 -3.42551,-1.87041 -4.53789,-2.53182 -0.22768,-0.13543 -0.48382,-0.28139 -0.56921,-0.32451 -0.0853,-0.0431 -0.41137,-0.21608 -0.72443,-0.3844 -0.31307,-0.16831 -1.08149,-0.581 -1.70761,-0.91707 -0.62613,-0.33609 -1.37127,-0.73944 -1.65587,-0.89637 -0.2846,-0.15691 -1.02974,-0.55776 -1.65587,-0.89074 -0.62612,-0.333 -1.37126,-0.73228 -1.65586,-0.8873 -0.28461,-0.15502 -0.72704,-0.39206 -0.98318,-0.52677 -0.98219,-0.51652 -2.76473,-1.46897 -3.25999,-1.74185 -0.2846,-0.15683 -1.05432,-0.58205 -1.71047,-0.94495 -0.65617,-0.3629 -1.22417,-0.65982 -1.26223,-0.65982 -0.038,0 -0.34733,-0.18735 -0.68725,-0.41633 -0.33992,-0.22899 -0.67191,-0.41634 -0.73776,-0.41634 -0.0658,0 -0.4333,-0.21411 -0.81654,-0.47579 -0.38325,-0.2617 -0.74813,-0.47581 -0.81086,-0.47581 -0.13381,0 -4.76845,-3.05083 -4.99675,-3.28921 -0.0854,-0.0892 -0.41138,-0.36916 -0.72444,-0.62226 -0.90261,-0.72971 -1.79945,-1.68846 -2.18243,-2.33309 -0.46542,-0.78339 -0.52525,-0.95165 -0.61343,-1.72517 -0.0655,-0.57413 -0.0414,-0.72448 0.19635,-1.22797 0.66594,-1.41015 3.12593,-2.22088 6.73917,-2.221 1.41778,-3e-5 4.78874,0.33528 5.97665,0.59452 1.05965,0.23124 1.6345,0.35218 1.99222,0.41909 0.19922,0.0373 0.64164,0.15171 0.98317,0.25432 0.34152,0.1026 0.92366,0.26546 1.29364,0.36191 0.36999,0.0964 0.85899,0.22506 1.08666,0.28585 0.22769,0.0608 0.55369,0.14125 0.72445,0.17884 0.17076,0.0376 0.35704,0.10983 0.41397,0.16053 0.057,0.0507 0.35962,0.15974 0.67269,0.2423 0.31307,0.0826 0.61578,0.18962 0.67269,0.2379 0.057,0.0483 0.35964,0.15661 0.67271,0.24071 0.31305,0.0842 0.63905,0.19582 0.72443,0.24828 0.0854,0.0524 0.43466,0.18064 0.77619,0.28489 0.34152,0.10425 0.90037,0.31597 1.2419,0.47054 0.34152,0.15458 0.88874,0.39282 1.21603,0.52941 0.32728,0.13656 0.86285,0.36062 1.19015,0.49784 0.32729,0.13726 0.68823,0.28853 0.80206,0.33624 0.24225,0.10158 1.06557,0.52478 1.65587,0.85128 0.22768,0.12588 0.45022,0.22881 0.49453,0.22864 0.0709,0 0.52162,0.22746 2.09276,1.05755 1.10915,0.586 2.5346,1.3991 2.97994,1.69981 0.27287,0.18428 0.5523,0.33563 0.62095,0.33637 0.0687,0.001 0.47409,0.24101 0.901,0.53394 0.4269,0.29293 0.82976,0.5332 0.89523,0.53394 0.15625,10e-4 4.30681,2.75178 4.51586,2.99206 0.0886,0.10186 0.61893,0.49177 1.17839,0.86637 0.55944,0.3746 1.23159,0.851 1.49367,1.05866 0.46679,0.36987 0.76215,0.58769 2.14888,1.58477 0.37749,0.27142 0.7562,0.57064 0.84159,0.66496 0.0854,0.0943 0.35315,0.29693 0.59507,0.45029 0.24191,0.15335 0.43983,0.32141 0.43983,0.37345 0,0.052 0.18144,0.20101 0.40318,0.33104 0.22173,0.12996 0.46624,0.30853 0.54333,0.39664 0.13164,0.15051 0.95102,0.79937 1.68519,1.33448 0.44482,0.3242 1.12311,0.90801 1.24924,1.07523 0.057,0.0754 0.25485,0.22709 0.43985,0.33696 0.18499,0.10986 0.33634,0.23973 0.33634,0.28861 0,0.0489 0.163,0.18974 0.36223,0.31305 0.19922,0.12335 0.36222,0.26792 0.36222,0.32138 0,0.0534 0.14509,0.1834 0.32244,0.28881 0.27073,0.16091 0.90383,0.68165 2.00612,1.65007 0.1859,0.16331 1.12992,1.00897 1.81111,1.62236 1.05707,0.9519 2.00024,1.79388 2.4838,2.21728 0.31305,0.27411 0.73219,0.66289 0.93142,0.86394 0.51389,0.5186 0.59099,0.59166 1.28921,1.22147 0.34395,0.31026 0.69324,0.63143 0.77619,0.7137 0.083,0.0823 0.4135,0.3919 0.7346,0.68807 0.32108,0.29615 0.65349,0.61731 0.73866,0.71371 0.0852,0.0964 0.35102,0.36258 0.59078,0.59156 0.23975,0.22898 0.54128,0.52338 0.67004,0.65424 0.12876,0.13079 0.50778,0.50553 0.84226,0.83264 0.33447,0.32713 0.79697,0.78652 1.02779,1.02089 0.23081,0.23435 0.57884,0.58229 0.77343,0.77317 0.19456,0.19089 0.59041,0.59647 0.87967,0.90127 0.78322,0.82536 0.99403,1.04295 1.76791,1.82483 0.38853,0.39254 0.87883,0.90105 1.08955,1.13003 0.21073,0.22898 0.95614,1.0319 1.65647,1.78427 3.80559,4.08833 10.68199,12.08327 12.36366,14.37479 0.17077,0.23267 0.47348,0.61601 0.6727,0.85184 0.38121,0.45125 0.75866,0.93136 1.86285,2.36958 0.36999,0.48189 0.89326,1.14933 1.16284,1.4832 0.42225,0.52295 0.48148,0.65643 0.42766,0.96386 -0.11857,0.67712 -0.24969,0.69843 -0.884,0.14367 z M 98.656276,120.00458 C 94.891205,117.62319 90.737201,106.57697 88.864351,93.966139 88.007171,88.194326 87.511173,80.495157 87.623246,74.700964 88.053394,52.462015 92.011057,27.52225 98.924573,3.484074 c 0.85731,-2.98083528 0.88577,-3.05604118 1.204987,-3.18394468 0.6054,-0.24256827 0.6143,-0.17946339 0.44386,3.14808188 -0.987167,19.2734918 -1.111577,37.6874268 -0.41546,61.4938408 0.34287,11.725929 0.60257,16.516045 1.6026,29.559368 0.76847,10.02313 0.93128,12.90595 0.93044,16.47474 -6.2e-4,2.72696 -0.17326,5.04345 -0.46979,6.30441 -0.2911,1.23793 -0.83774,2.28504 -1.43371,2.74634 -0.71943,0.55687 -1.223837,0.55158 -2.131224,-0.0223 z"
       id="path7830" />
    <path
       style="fill:#cb3c33;fill-opacity:1;stroke:none;stroke-width:0;stroke-miterlimit:4;stroke-dasharray:0, 0;stroke-dashoffset:0"
       d="m 2.299344,754.59901 c 0.020172,-0.62223 5.9596705,-4.44985 13.198883,-8.50579 C 78.0001,711.07492 188.55579,635.59091 254.0387,583.22517 c 53.39592,-42.69996 69.3369,-53.91368 79.60622,-55.99919 3.70651,-0.75272 5.51592,-0.26388 7.91933,2.13953 3.91009,3.91008 3.90409,6.89666 -0.0374,18.62429 -8.73732,25.99742 -39.41128,63.58428 -74.9137,91.79674 -54.71501,43.48002 -147.38968,86.3572 -237.582276,109.92064 -23.921231,6.24958 -26.7925743,6.77504 -26.73152,4.89183 z"
       id="path11861"
       transform="scale(0.26458333)" />
    <path
       style="fill:#389826;fill-opacity:1;stroke:none;stroke-width:0;stroke-miterlimit:4;stroke-dasharray:none;stroke-dashoffset:0"
       d="m 372.07543,451.63449 c -12.96098,-9.09758 -28.69733,-52.65573 -35.9151,-99.41286 -3.93807,-25.51109 -3.96576,-105.03397 -0.0491,-141.0395 3.80368,-34.96692 9.36607,-71.73029 15.51972,-102.57418 7.30092,-36.594303 24.43325,-104.2929032 27.05721,-106.9168629 0.50591,-0.5059076 0.358,14.6887289 -0.32869,33.7658589 -1.77958,49.43941 -1.25874,209.602394 0.80936,248.884714 0.96092,18.25217 3.15749,52.17592 4.88125,75.38614 1.82545,24.57947 2.92062,51.14605 2.62282,63.62441 -0.45252,18.96178 -0.87639,21.91314 -3.68804,25.67961 -3.90047,5.22504 -6.3432,5.80781 -10.90943,2.60267 z"
       id="path14976"
       transform="scale(0.26458333)" />
    <path
       style="fill:#9558b2;fill-opacity:1;stroke:none;stroke-width:0;stroke-miterlimit:4;stroke-dasharray:none;stroke-dashoffset:0"
       d="M 748.18813,748.00517 C 675.62346,692.39064 575.00909,627.86762 485.06977,579.26991 426.5772,547.66412 413.57605,537.55699 415.8198,525.43487 c 1.58626,-8.56998 28.2774,-10.99392 54.15664,-4.91819 44.83329,10.52561 86.76728,33.77413 140.4005,77.8391 32.52015,26.7185 74.2728,67.83398 105.53664,103.92609 23.69049,27.34916 41.6309,50.71739 38.68543,50.38962 -0.20741,-0.0231 -3.09231,-2.12292 -6.41088,-4.66632 z"
       id="path21859"
       transform="scale(0.26458333)" />
  </g>
</svg>
